<?xml version="1.0" encoding="utf-8"?>
<svg xmlns="http://www.w3.org/2000/svg" viewBox="0 0 500 500">
  <g transform="matrix(2.054561, 0, 0, 2.054561, 113.589561, 51.33271)" style="">
    <polygon style="fill: rgb(168, 168, 168);" points="29,58 55,45 55,13 29,26 &#9;"/>
  </g>
  <g transform="matrix(2.054561, 0, 0, 2.054561, 194.236115, 98.452042)" style="">
    <polygon style="fill: rgb(128, 128, 128);" points="29,58 3,45 3,13 29,26 &#9;"/>
    <polygon style="fill: rgb(168, 168, 168);" points="29,58 55,45 55,13 29,26 &#9;"/>
    <polygon style="fill: rgb(191, 191, 191);" points="3,13 28,0 55,13 29,26 &#9;"/>
  </g>
  <g transform="matrix(2.054561, 0, 0, 2.054561, 272.164246, 142.852951)" style="">
    <polygon style="fill: rgb(128, 128, 128);" points="29,58 3,45 3,13 29,26 &#9;"/>
    <polygon style="fill: rgb(168, 168, 168);" points="29,58 55,45 55,13 29,26 &#9;"/>
    <polygon style="fill: rgb(191, 191, 191);" points="3,13 28,0 55,13 29,26 &#9;"/>
  </g>
  <g transform="matrix(2.054561, 0, 0, 2.054561, 354.170013, 191.331497)" style="">
    <polygon style="fill: rgb(128, 128, 128);" points="29,58 3,45 3,13 29,26 &#9;"/>
    <polygon style="fill: rgb(168, 168, 168);" points="29,58 55,45 55,13 29,26 &#9;"/>
    <polygon style="fill: rgb(191, 191, 191);" points="3,13 28,0 55,13 29,26 &#9;"/>
  </g>
  <g transform="matrix(2.054561, 0, 0, 2.054561, 274.429596, 238.903915)" style="">
    <polygon style="fill: rgb(128, 128, 128);" points="29,58 3,45 3,13 29,26 &#9;"/>
    <polygon style="fill: rgb(168, 168, 168);" points="29,58 55,45 55,13 29,26 &#9;"/>
    <polygon style="fill: rgb(191, 191, 191);" points="3,13 28,0 55,13 29,26 &#9;"/>
  </g>
  <g transform="matrix(2.054561, 0, 0, 2.054561, 194.23613, 284.210968)" style="">
    <polygon style="fill: rgb(128, 128, 128);" points="29,58 3,45 3,13 29,26 &#9;"/>
    <polygon style="fill: rgb(168, 168, 168);" points="29,58 55,45 55,13 29,26 &#9;"/>
    <polygon style="fill: rgb(191, 191, 191);" points="3,13 28,0 55,13 29,26 &#9;"/>
  </g>
  <g transform="matrix(2.054561, 0, 0, 2.054561, 113.589561, 329.064972)" style="">
    <polygon style="fill: rgb(128, 128, 128);" points="29,58 3,45 3,13 29,26 &#9;"/>
    <polygon style="fill: rgb(168, 168, 168);" points="29,58 55,45 55,13 29,26 &#9;"/>
    <polygon style="fill: rgb(191, 191, 191);" points="3,13 28,0 55,13 29,26 &#9;"/>
  </g>
  <g transform="matrix(2.054561, 0, 0, 2.054561, 32.036858, 377.543488)" style="">
    <polygon style="fill: rgb(128, 128, 128);" points="29,58 3,45 3,13 29,26 &#9;"/>
    <polygon style="fill: rgb(168, 168, 168);" points="29,58 55,45 55,13 29,26 &#9;"/>
    <polygon style="fill: rgb(191, 191, 191);" points="3,13 28,0 55,13 29,26 &#9;"/>
  </g>
  <g transform="matrix(2.054561, 0, 0, 2.054561, 32.489937, 284.210968)" style="">
    <polygon style="fill: rgb(128, 128, 128);" points="29,58 3,45 3,13 29,26 &#9;"/>
    <polygon style="fill: rgb(168, 168, 168);" points="29,58 55,45 55,13 29,26 &#9;"/>
    <polygon style="fill: rgb(191, 191, 191);" points="3,13 28,0 55,13 29,26 &#9;"/>
  </g>
  <g transform="matrix(2.054561, 0, 0, 2.054561, 32.489937, 190.425385)" style="">
    <polygon style="fill: rgb(128, 128, 128);" points="29,58 3,45 3,13 29,26 &#9;"/>
    <polygon style="fill: rgb(168, 168, 168);" points="29,58 55,45 55,13 29,26 &#9;"/>
    <polygon style="fill: rgb(191, 191, 191);" points="3,13 28,0 55,13 29,26 &#9;"/>
  </g>
  <g transform="matrix(2.054561, 0, 0, 2.054561, 30.677649, 98.452049)" style="">
    <polygon style="fill: rgb(128, 128, 128);" points="29,58 3,45 3,13 29,26 &#9;"/>
    <polygon style="fill: rgb(168, 168, 168);" points="29,58 55,45 55,13 29,26 &#9;"/>
    <polygon style="fill: rgb(191, 191, 191);" points="3,13 28,0 55,13 29,26 &#9;"/>
  </g>
  <g transform="matrix(2.054561, 0, 0, 2.054561, 33.150127, 6.225213)" style="">
    <polygon style="fill: rgb(128, 128, 128);" points="29,58 3,45 3,13 29,26 &#9;"/>
    <polygon style="fill: rgb(168, 168, 168);" points="29,58 55,45 55,13 29,26 &#9;"/>
    <polygon style="fill: rgb(191, 191, 191);" points="3,13 28,0 55,13 29,26 &#9;"/>
    <polygon style="fill: rgb(191, 191, 191);" points="42.152 34.955 67.152 21.955 94.152 34.955 68.152 47.955"/>
    <polygon style="fill: rgb(128, 128, 128);" points="68.152 79.955 42.152 66.955 42.152 34.955 68.152 47.955"/>
  </g>
</svg>